PathFileType	4	(X/Y/Z)	C:\Users\Admin\Desktop\Capture Files\05302019 Reflex Trials\AcheillesTrialStatic_1-Unnamed.trc
DataRate	CameraRate	NumFrames	NumMarkers	Units	OrigDataRate	OrigDataStartFrame	OrigNumFrames
300.00	300.00	      24	0	mm	300.00	142	      1130
Frame#	Time	
		

142	0.470	111.40573	243.00490	383.09283	148.65791	204.04488	235.89442	88.24612	135.04323	367.96021				200.73479	-309.18967	928.38562	144.82707	355.88150	155.09413	-232.03610	209.65401	318.47067	-214.47644	-217.25687	665.89966	289.26279	-316.72971	1019.91534	72.35017	245.66394	246.29147	280.12570	-140.91464	964.11597	99.13073	156.32115	304.02994	124.18245	309.95587	207.63843							91.29880	245.53549	565.34875	113.08712	254.66669	320.45383	
143	0.473	111.41392	243.01947	383.09549	148.67796	204.02806	235.88931	88.25609	135.05124	367.94904				200.74223	-309.20688	928.38184	144.83376	355.88675	155.09334	-232.78502	209.92467	318.62228	-214.49374	-217.28247	665.90924	289.27917	-316.78067	1019.91742	72.35135	245.66129	246.28909	280.12027	-140.91461	964.10529	99.11359	156.31122	304.03833	124.18830	309.95361	207.62479							91.30828	245.53632	565.34540	113.09260	254.66032	320.43497	
144	0.477	111.42078	243.01091	383.10458	148.66805	204.04637	235.89285	88.27453	135.03186	367.94720				200.77837	-309.24438	928.37030	144.83524	355.88818	155.09077	-232.77068	209.93559	318.63217	-214.48328	-217.26584	665.89966	289.25052	-316.77219	1019.91870	72.36282	245.64767	246.28404	280.11456	-140.92570	964.11792	99.12808	156.30354	304.04126	124.19831	309.94696	207.63377							91.30340	245.53412	565.34564	113.08265	254.66675	320.44540	
145	0.480	111.42574	243.01990	383.09695	148.66377	204.04564	235.89981	88.27691	135.05942	367.94482				200.78096	-309.27689	928.36798	144.85272	355.89398	155.08974	-232.76451	209.93343	318.61722	-214.47644	-217.24745	665.88116	289.26434	-316.85699	1019.90131	72.35639	245.66849	246.28516	280.11942	-140.91016	964.13092	99.13473	156.32509	304.01743	124.20674	309.95068	207.62978							91.30700	245.52597	565.34332	113.09970	254.66884	320.44586	
146	0.483	111.42365	243.00467	383.09430	148.67532	204.02782	235.87959	88.29538	135.03230	367.98044				200.75914	-309.23431	928.37280	144.85898	355.88873	155.09470	-232.75952	209.94597	318.62100	-214.46129	-217.25778	665.90149	289.24417	-316.72104	1019.94104	72.37486	245.65320	246.28668	280.12335	-140.91339	964.11493	99.12415	156.31151	304.03610	124.21815	309.95435	207.63910							91.30804	245.53535	565.33551	113.08872	254.67084	320.44208	
147	0.487	111.42564	243.01875	383.10419	148.70673	204.03485	235.89973	88.28329	135.05099	367.96811				200.74669	-309.20554	928.36951	144.86588	355.90738	155.10823	-232.74570	209.95897	318.62549	-214.44565	-217.25584	665.91187	289.23477	-316.67084	1019.93994	72.37325	245.64973	246.26459	280.11642	-140.91261	964.11627	99.15237	156.31076	304.04440	124.20967	309.95129	207.64178							91.29298	245.53911	565.34338	113.08999	254.65933	320.43704	
148	0.490	111.43412	243.00478	383.10815	148.70737	204.02325	235.87932	88.29782	135.03047	367.99048				200.76137	-309.23044	928.37085	144.87244	355.89825	155.10754	-232.72525	209.95857	318.62601	-214.49948	-217.24820	665.90198	289.28723	-316.81641	1019.88922	72.37794	245.65807	246.28746	280.11011	-140.93629	964.11145	99.15004	156.29813	304.03198	124.21286	309.95953	207.64772							91.30932	245.53615	565.34601	113.10252	254.65138	320.43640	
149	0.493	111.43279	243.01189	383.09518	148.69118	204.04401	235.89008	88.26749	135.01930	367.96780				200.75133	-309.17215	928.38776	144.89180	355.89746	155.10640	-232.75040	209.95279	318.61499	-214.51906	-217.25314	665.90234	289.25983	-316.74969	1019.92523	72.38972	245.68468	246.29327	280.12683	-140.91226	964.11914	99.15934	156.31992	304.03024	124.23859	309.96063	207.64655							91.30399	245.53386	565.34930	113.11321	254.67038	320.43964	
150	0.497	111.44759	243.00983	383.10220	148.67696	204.02156	235.88115	88.28944	135.04163	367.98212				200.76106	-309.21866	928.36389	144.89423	355.89377	155.10829	-232.72708	209.95554	318.62585	-214.49532	-217.25426	665.86530	289.25598	-316.71039	1019.93573	72.39268	245.66652	246.28387	280.11850	-140.91449	964.11768	99.11996	156.31137	304.02374	124.23081	309.95438	207.63641							91.31645	245.52939	565.34650	113.11581	254.65802	320.44855	
151	0.500	111.44526	243.01184	383.10049	148.72910	204.03616	235.90729	88.28458	135.04944	367.94653				200.75325	-309.22757	928.37250	144.89690	355.89804	155.11600	-231.94753	209.70697	318.46768	-214.48592	-217.26498	665.89941	289.27444	-316.78769	1019.90192	72.40842	245.65732	246.27338	280.12326	-140.90399	964.12781	99.15816	156.32263	304.04041	124.25076	309.95544	207.63734							91.31168	245.52731	565.33722	113.11989	254.66217	320.45758	
152	0.503	111.46402	243.00172	383.10687	148.71121	204.04285	235.91338	88.33130	135.04460	367.98563				200.75917	-309.21097	928.36719	144.90897	355.89114	155.11693	-231.95555	209.70435	318.46768	-214.51411	-217.26869	665.90405	289.25024	-316.70419	1019.91614	72.40862	245.66072	246.28931	280.11581	-140.90923	964.11859	99.13961	156.30722	304.03223	124.24940	309.95673	207.65666							91.31926	245.52931	565.34583	113.12881	254.65897	320.45221	
153	0.507	111.44810	243.01524	383.10837	148.73491	204.03255	235.88156	88.27632	135.03502	367.96527				200.73776	-309.16022	928.38422	144.92371	355.90405	155.10652	-231.93983	209.71797	318.47815	-214.46199	-217.25790	665.88477	289.25192	-316.77557	1019.88971	72.42012	245.65483	246.27602	280.11371	-140.91901	964.12646	99.14462	156.29802	304.03287	124.25399	309.96066	207.65704							91.32621	245.52925	565.35687	113.13583	254.66280	320.45917	
154	0.510	111.46359	242.99623	383.10611	148.75264	204.03192	235.90140	88.30668	135.03879	367.95935				200.74971	-309.21014	928.38617	144.92769	355.89084	155.12823	-231.92694	209.72130	318.47736	-214.47502	-217.25504	665.89282	289.23996	-316.75018	1019.92151	72.41938	245.65205	246.27704	280.10281	-140.92284	964.12976	99.16689	156.32347	304.04855	124.26931	309.95572	207.65236							91.31300	245.53075	565.35449	113.13425	254.66872	320.44931	
155	0.513	111.46156	243.00111	383.10794	148.74165	204.02573	235.90883	88.29747	135.04933	367.97354				200.71150	-309.14771	928.39502	144.92114	355.90460	155.12547	-231.90976	209.72690	318.47250	-214.46428	-217.27193	665.89966	289.24164	-316.76199	1019.92072	72.42759	245.65402	246.28380	280.08762	-140.92729	964.12250	99.15817	156.30205	304.03238	124.27703	309.95374	207.65390							91.32922	245.53111	565.35303	113.14538	254.65477	320.45624	
156	0.517	111.46308	243.00919	383.11237	148.74677	204.03931	235.91859	88.28539	135.03430	367.96109				200.73866	-309.22552	928.36786	144.94344	355.90576	155.12677	-231.91251	209.72546	318.46295	-214.47398	-217.27788	665.90106	289.25696	-316.73740	1019.93042	72.44312	245.64542	246.27541	280.09369	-140.94800	964.12646	99.19301	156.31892	304.04803	124.27962	309.95596	207.66119							91.32626	245.52171	565.35284	113.16307	254.65849	320.45883	
157	0.520	111.47700	243.00476	383.10889	148.77884	204.02016	235.91954	88.33327	135.03384	368.00458				200.75764	-309.25293	928.38092	144.94865	355.89426	155.12531	-231.89722	209.75040	318.47708	-214.47647	-217.28046	665.87366	289.25040	-316.72491	1019.95605	72.46617	245.63855	246.27864	280.09821	-140.93033	964.13806	99.19696	156.32393	304.05011	124.29198	309.95413	207.65742							91.32746	245.52534	565.35400	113.15288	254.65932	320.47415	
158	0.523	111.49288	242.98984	383.11365	148.76328	204.01938	235.90282	88.32111	135.02208	367.96436				200.73132	-309.24161	928.37054	144.95537	355.90540	155.14165	-231.89307	209.73660	318.47424	-214.46384	-217.26570	665.92151	289.23993	-316.80307	1019.90558	72.44852	245.65001	246.30579	280.08530	-140.94795	964.13788	99.18940	156.31763	304.04495	124.29051	309.95465	207.65379							91.33315	245.51266	565.35352	113.16028	254.65164	320.46793	
159	0.527	111.48343	242.99397	383.11429	148.76991	204.02428	235.90610	88.33256	135.02174	367.96463				200.72630	-309.22812	928.37469	144.96338	355.89548	155.13972	-231.86906	209.73706	318.48462	-214.47008	-217.24922	665.89160	289.24115	-316.82797	1019.88019	72.44583	245.65591	246.29584	280.09268	-140.94035	964.11890	99.17509	156.31161	304.02591	124.30720	309.96793	207.67659							91.33292	245.51726	565.36841	113.17133	254.64655	320.47519	
160	0.530	111.48522	243.00220	383.11661	148.81506	204.05157	235.92178	88.33615	135.02693	367.97971				200.73251	-309.24738	928.36761	144.95688	355.90417	155.14421	-231.85806	209.74802	318.47586	-214.48332	-217.28061	665.88892	289.25125	-316.82782	1019.89301	72.47823	245.63448	246.27481	280.11099	-140.92966	964.12250	99.20869	156.31525	304.05862	124.30952	309.95920	207.66832							91.33970	245.51454	565.36646	113.18031	254.64537	320.47348	
161	0.533	111.49623	243.00130	383.12839	148.80650	204.02980	235.92891	88.33073	135.03142	367.97656				200.72147	-309.19815	928.38617	144.98355	355.90198	155.14532	-231.84343	209.76057	318.48785	-214.49655	-217.25858	665.86969	289.23422	-316.73788	1019.92303	72.47620	245.64235	246.29315	280.07663	-140.94109	964.12268	99.18893	156.30064	304.05435	124.31468	309.95145	207.66827							91.34361	245.50290	565.36713	113.17908	254.64267	320.48129	
162	0.537	111.51582	242.99593	383.12552	148.80740	204.03391	235.93921	88.33118	135.04358	367.99191				200.73997	-309.26532	928.36121	144.97812	355.90912	155.16068	-231.82880	209.75328	318.49628	-214.51225	-217.28674	665.88751	289.24942	-316.82462	1019.90619	72.48173	245.63705	246.29829	280.10388	-140.94949	964.13672	99.19920	156.30286	304.05090	124.33356	309.95316	207.67624							91.34278	245.50041	565.36597	113.17621	254.64027	320.48065	
163	0.540	111.50324	242.98705	383.12521	148.80968	204.02441	235.92210	88.34366	135.00157	367.97482				200.72612	-309.25241	928.35413	144.98792	355.90033	155.16495	-231.83928	209.76105	318.49088	-214.48773	-217.27660	665.90979	289.19867	-316.77179	1019.91254	72.50418	245.63644	246.29204	280.09940	-140.95197	964.13202	99.21092	156.31561	304.04855	124.34178	309.94449	207.68036							91.34822	245.49472	565.37238	113.19654	254.64513	320.48486	
164	0.543	111.51203	242.97374	383.12064	148.83916	204.03638	235.93054	88.31917	135.01294	367.96561				200.72386	-309.23477	928.35156	145.01575	355.90491	155.15785	-231.82050	209.76674	318.49146	-214.49544	-217.28546	665.87720	289.21799	-316.78305	1019.91010	72.50594	245.62405	246.29637	280.10739	-140.95267	964.13129	99.21610	156.29848	304.06604	124.34387	309.96112	207.68243							91.36015	245.48967	565.36456	113.20876	254.63345	320.47220	
165	0.547	111.52986	242.98360	383.13251	148.82750	204.01581	235.94452	88.34080	135.00806	367.99417				200.72707	-309.29221	928.34692	145.01115	355.90933	155.15227	-231.79596	209.77954	318.48984	-214.46722	-217.25752	665.89423	289.22598	-316.83273	1019.91370	72.49875	245.65744	246.31335	280.13300	-140.93077	964.12195	99.23069	156.30159	304.05011	124.34518	309.95825	207.68889							91.35500	245.47723	565.36597	113.21410	254.64429	320.47824	
